<?xml version="1.0" encoding="iso-8859-1"?>
<!-- Uploaded to: SVG Repo, www.svgrepo.com, Generator: SVG Repo Mixer Tools -->
<svg version="1.1" id="Layer_1" xmlns="http://www.w3.org/2000/svg" xmlns:xlink="http://www.w3.org/1999/xlink" 
	 viewBox="0 0 392.634 392.634" xml:space="preserve">
<path style="fill:#FFFFFF;" d="M142.171,233.086c-2.327-25.471-14.093-51.071-25.471-75.895
	c-21.269-46.028-41.309-89.729-10.214-135.822h179.653c31.095,46.158,10.99,89.729-10.214,135.758
	c-11.442,24.824-23.273,50.489-25.471,75.895H142.171V233.086z"/>
<path style="fill:#56ACE0;" d="M273.08,43.672H119.286c-3.038,6.271-4.848,12.606-5.818,18.941h52.234
	c6.012,0,10.925,4.848,10.925,10.925c0,6.012-4.848,10.925-10.925,10.925h-51.976c0.905,6.077,2.521,12.412,4.655,19.006
	c0.323,0,0.517-0.065,0.84-0.065h28.832c6.012,0,10.925,4.848,10.925,10.925c0,6.012-4.848,10.925-10.925,10.925h-21.333
	c3.038,7.176,6.465,14.739,10.149,22.691c9.374,20.299,18.941,41.18,24.113,62.836h70.659c5.107-21.721,14.675-42.473,24.113-62.836
	C275.731,104.375,287.949,74.185,273.08,43.672z"/>
<path style="fill:#194F82;" d="M300.038,4.496c0,0-2.844-4.396-8.727-4.396H101.25c-6.012-0.065-8.727,4.396-8.727,4.396
	C38.091-15.286-6.192,32.811,0.79,97.781c5.172,46.998,62.255,93.091,115.265,114.23c3.232,10.731,5.301,21.075,5.042,31.224
	c0.129,5.883,4.073,11.119,10.925,11.184h21.204v33.228h-15.515c-9.051,0-17.261,5.624-20.428,14.093l-23.208,61.35
	c-5.624,13.834,5.172,29.543,20.428,29.543h163.749c15.774,0,25.859-15.451,20.428-29.543l-23.273-61.414
	c-3.168-8.404-11.378-14.093-20.428-14.093h-15.515v-33.228h21.204c6.659-0.453,10.99-5.236,10.925-11.184
	c-0.323-10.02,1.745-20.493,5.042-31.16c52.945-21.075,110.028-67.232,115.265-114.295C398.882,27.51,350.139-12.894,300.038,4.496z
	 M22.511,95.389c-4.073-41.826,25.859-82.36,58.182-71.628c-25.471,50.877-3.232,99.232,16.614,142.481
	c2.651,5.624,5.172,11.184,7.564,16.743C60.652,160.294,25.678,124.157,22.511,95.389z M254.979,309.434l23.208,61.285H114.438
	l23.208-61.35L254.979,309.434z M174.947,287.648v-33.228h42.667v33.228H174.947z M275.796,157.191
	c-11.442,24.824-23.273,50.489-25.471,75.895H142.171c-2.327-25.471-14.093-51.071-25.471-75.895
	c-21.269-46.028-41.309-89.729-10.214-135.822h179.653C317.105,67.462,297.064,111.098,275.796,157.191z M370.115,95.389
	c-3.168,28.832-38.271,64.905-82.36,87.531c2.457-5.495,4.913-11.055,7.564-16.743c19.911-43.248,42.214-91.669,16.614-142.545
	C344.127,14.387,376.967,47.034,370.115,95.389z"/>
<polygon style="fill:#FFC10D;" points="114.438,370.783 278.188,370.783 254.979,309.434 137.646,309.434 "/>
<rect x="174.947" y="254.419" style="fill:#FFFFFF;" width="42.667" height="33.228"/>
</svg>